# xmcd CD database file
#
# Track frame offsets:
#	150
#	16770
#	35265
#	57320
#	75200
#	94447
#	110430
#	128397
#	146557
#	162712
#	176210
#	191730
#	203187
#	221477
#	241995
#	256650
#
# Disc length: 3627 seconds
#
# Revision: 0
# Processed by: cddbd v1.4PL0 Copyright (c) Steve Scherf et al.
# Submitted via: CDex 1.50
#
DISCID=d70e2910
DTITLE=Various Artist - Forever Country Disc 2
DYEAR=1900
DGENRE=Country
TTITLE0=Paul Brandt - I Do
TTITLE1=Shenandoah - Somewhere In The Vacinity Of The Heart
TTITLE2=Steve Wariner - What If I Said
TTITLE3=Bryan White - Rebecca Lynn
TTITLE4=BlackHawk - I'm Not Strong Enough To Say No
TTITLE5=Jeff Carson - The Car
TTITLE6=Patty Loveless - Nothin' But The Wheel
TTITLE7=Billy Ray Cyrus - In The Heart Of A Woman
TTITLE8=Travis Tritt - Can I Trust You With My Heart
TTITLE9=Diamond Rio - In A Week Or Two
TTITLE10=Deana Carter - Count Me In
TTITLE11=Tracy Byrd - Holdin' Heaven
TTITLE12=Lionel Cartwright - Leap Of Faith
TTITLE13=Suzy Bogguss - Letting Go
TTITLE14=Marty Stuart - Tempted
TTITLE15=Doug Stone - In A Different Light
EXTD=
EXTT0=
EXTT1=
EXTT2=
EXTT3=
EXTT4=
EXTT5=
EXTT6=
EXTT7=
EXTT8=
EXTT9=
EXTT10=
EXTT11=
EXTT12=
EXTT13=
EXTT14=
EXTT15=
PLAYORDER=
